<svg width="288" height="41" viewBox="0 0 288 41" fill="none" xmlns="http://www.w3.org/2000/svg">
<g clip-path="url(#clip0_49_619)">
<path d="M164.443 7.78296C164.215 2.87258 160.366 -0.240527 155.082 0.0162245C148.493 0.321117 143.372 10.4949 143.176 10.6714C139.213 7.44597 134.745 2.66397 129.216 4.60566C124.633 6.2264 123.149 11.2972 124.339 15.6139C126.15 22.0808 131.042 27.7614 135.625 32.5434C138.235 35.2714 143.568 42.8456 148.151 40.5669C153.174 38.0796 157.381 28.4033 160.089 23.7497C163.073 18.5986 164.72 13.7685 164.443 7.78296ZM147.107 33.1853C145.492 33.1853 139.588 28.1787 136.914 24.7927C134.891 22.2413 131.238 17.7963 130.439 14.6671C129.232 9.85302 133.652 10.7196 135.854 12.7094C138.822 15.3571 141.725 21.2945 143.975 21.2785C146.226 21.2624 150.026 0.802526 157.757 5.37591C165.52 9.98139 148.721 33.1853 147.107 33.1853Z" fill="#722544"/>
<path d="M116.364 19.9949C110.363 18.5186 102.632 19.8184 96.4675 19.9146C89.4709 20.027 82.4907 20.2035 75.4941 20.5405C63.7354 21.1021 50.3131 24.5522 38.6685 22.2254C32.0471 20.8935 28.8831 16.9781 24.5123 12.4047C20.9733 8.69782 15.787 7.36592 10.8128 6.83637C6.39305 6.37101 1.48406 7.59058 0.277192 12.4689C-1.84297 21.0861 8.72524 22.5784 9.3939 23.2685C6.34413 27.9221 2.88663 34.1804 7.99133 38.2242C12.3132 41.6422 17.4179 39.2512 21.6746 36.9886C26.4368 34.4532 30.4651 30.6661 35.5861 28.7726C41.1801 26.7025 46.6273 28.3072 52.3843 28.0986C59.7071 27.8258 66.8341 25.8681 74.1568 25.4669C80.8109 25.0978 87.4812 25.3225 94.1353 25.5953C100.496 25.852 106.84 26.1088 113.217 26.1409C116.544 26.189 121.502 21.2626 116.364 19.9949ZM26.029 27.9221C23.1424 30.9229 19.3098 32.8004 15.4119 34.1644C12.672 35.1272 10.4051 32.4794 11.775 29.9921C13.1287 27.5209 18.7063 24.0869 18.6574 21.2465C18.6085 18.5025 13.569 18.6469 11.6935 18.1495C7.68146 17.0583 3.71838 16.962 5.15357 12.6614C6.58876 8.36083 20.6471 14.0575 24.023 18.31C25.9801 20.7812 28.5243 25.3225 26.029 27.9221Z" fill="#722544"/>
<path d="M171.636 27.2962C177.637 28.7725 185.368 27.4727 191.532 27.3764C198.529 27.2641 205.509 27.0876 212.506 26.7506C224.265 26.189 237.687 22.7389 249.331 25.0657C255.953 26.3976 259.117 30.313 263.488 34.8864C267.027 38.5933 272.213 39.9252 277.187 40.4547C281.623 40.9201 286.549 39.7005 287.739 34.8222C289.859 26.205 279.291 24.7127 278.622 24.0226C281.672 19.369 285.13 13.1107 280.025 9.06686C275.703 5.64885 270.598 8.03985 266.342 10.3025C261.579 12.8379 257.551 16.625 252.43 18.5185C246.836 20.5886 241.389 18.9839 235.632 19.1925C228.309 19.4653 221.182 21.423 213.859 21.8242C207.205 22.1933 200.535 21.9686 193.881 21.6958C187.52 21.4391 181.176 21.1823 174.799 21.1502C171.456 21.1181 166.498 26.0445 171.636 27.2962ZM261.971 19.369C264.858 16.3682 268.69 14.4907 272.588 13.1267C275.328 12.1639 277.595 14.8117 276.225 17.299C274.871 19.7702 269.294 23.2042 269.343 26.0445C269.391 28.7886 274.431 28.6442 276.306 29.1416C280.318 30.2328 284.282 30.3291 282.846 34.6297C281.411 38.9303 267.353 33.2336 263.977 28.9811C262.02 26.5099 259.476 21.9847 261.971 19.369Z" fill="#722544"/>
</g>
<defs>
<clipPath id="clip0_49_619">
<rect width="288" height="41" fill="white"/>
</clipPath>
</defs>
</svg>
