<svg width="100" height="94" viewBox="0 0 100 94" fill="none" xmlns="http://www.w3.org/2000/svg">
<path d="M55.4404 3.29362C54.4367 1.28085 52.3157 0 49.9864 0C47.6571 0 45.5551 1.28085 44.5324 3.29362L32.3557 27.5017L5.16165 31.3809C2.88917 31.7102 0.995432 33.2473 0.29475 35.3515C-0.405933 37.4558 0.162188 39.7796 1.7908 41.3349L21.5235 60.2001L16.8649 86.8601C16.4862 89.0558 17.4331 91.2882 19.3079 92.5873C21.1827 93.8865 23.6635 94.0512 25.7087 93.0082L50.0053 80.4741L74.302 93.0082C76.3472 94.0512 78.828 93.9048 80.7028 92.5873C82.5776 91.2699 83.5245 89.0558 83.1457 86.8601L78.4682 60.2001L98.2009 41.3349C99.8296 39.7796 100.417 37.4558 99.697 35.3515C98.9774 33.2473 97.1026 31.7102 94.8301 31.3809L67.6171 27.5017L55.4404 3.29362Z" fill="#F74E4E"/>
</svg>
