<svg width="50" height="50" viewBox="0 0 50 50" fill="none" xmlns="http://www.w3.org/2000/svg">
<g clip-path="url(#clip0_38_314)">
<path d="M49.9985 12.402C49.9245 5.53911 44.3377 0 37.459 0H12.541C9.73088 0 7.13704 0.924636 5.04688 2.48505V35.4279C5.04688 41.5839 10.0371 46.5729 16.1915 46.5729H46.0737C48.4919 44.2867 50 41.0483 50 37.4586V12.5414C50 12.4949 50 12.4485 49.9985 12.402ZM38.8103 24.5268C37.7101 25.2511 36.6302 26.0074 35.5793 26.797L35.9872 27.1657L40.5971 31.3375C41.3142 31.9863 41.4042 33.0575 40.7974 33.7282L39.7625 34.8734L39.5898 35.0636C38.9831 35.7342 37.909 35.7516 37.1919 35.1013L31.8881 30.3011L31.6312 30.0688C31.1507 30.5086 30.679 30.9601 30.2174 31.4216C30.1811 31.4579 30.1434 31.4928 30.1057 31.5233C29.7529 31.8266 29.3233 31.9703 28.8995 31.9703C28.1998 31.9703 27.5118 31.5813 27.1896 30.8686L24.153 24.1436C23.9789 23.7589 23.4302 23.7473 23.2487 24.1305C22.5099 25.6953 20.472 26.4254 18.8594 25.3498C18.5749 25.1597 18.2948 24.9623 17.9987 24.7924C15.473 23.3409 13.7864 20.5931 13.8488 17.4563C13.8793 15.9264 14.3336 14.4952 15.0985 13.273C16.5268 10.9882 19.0408 9.44086 21.9003 9.37119C24.1138 9.31748 26.1314 10.1347 27.6425 11.5021C27.8341 11.6733 28.0169 11.8562 28.1897 12.0464C28.3987 11.8156 28.6208 11.5993 28.8559 11.3946C30.3713 10.0766 32.3715 9.30006 34.5545 9.37264C38.8786 9.51635 42.3941 13.0393 42.5276 17.3634C42.6046 19.8296 41.5987 22.0621 39.9512 23.6225C39.5985 23.9563 39.2168 24.2583 38.8103 24.5268Z" fill="#F6BBD7"/>
<path d="M31.8881 30.3011C31.3482 30.7539 30.8184 31.2199 30.2987 31.6974C29.8183 32.1373 29.348 32.5872 28.8864 33.0488C28.5134 33.4219 28.0373 33.5975 27.567 33.5975C26.8674 33.5975 26.1794 33.2085 25.8571 32.4958L22.8206 25.7722C22.6464 25.3861 22.0977 25.376 21.9177 25.7577C21.1775 27.3225 19.1396 28.0541 17.5284 26.977C17.2439 26.7869 16.9638 26.5909 16.6676 26.4196C14.1406 24.9695 12.4554 22.2217 12.5178 19.0849C12.5642 16.806 13.5484 14.7434 15.0986 13.2729C14.3336 14.4952 13.8793 15.9264 13.8488 17.4563C13.7864 20.5931 15.4731 23.3409 17.9987 24.7924C18.2948 24.9623 18.5749 25.1597 18.8594 25.3498C20.472 26.4254 22.51 25.6953 23.2488 24.1305C23.4302 23.7473 23.9789 23.7589 24.1531 24.1436L27.1896 30.8686C27.5118 31.5813 28.1999 31.9703 28.8995 31.9703C29.3233 31.9703 29.753 31.8266 30.1057 31.5233C30.1434 31.4928 30.1812 31.4579 30.2174 31.4216C30.679 30.9601 31.1508 30.5086 31.6312 30.0688L31.8881 30.3011Z" fill="#722544"/>
<path d="M39.9513 23.6224C39.3199 24.6342 38.4751 25.4993 37.4794 26.1539C36.9771 26.4849 36.4793 26.8216 35.9872 27.1657L35.5793 26.797C36.6302 26.0073 37.7102 25.2511 38.8104 24.5267C39.2168 24.2582 39.5986 23.9563 39.9513 23.6224Z" fill="#722544"/>
<path d="M39.7626 34.8735C39.6958 35.0462 39.5971 35.2102 39.4665 35.3554L38.2588 36.6908C37.6506 37.3614 36.578 37.3788 35.8595 36.73L30.2988 31.6975L30.1057 31.5233C30.1435 31.4928 30.1812 31.458 30.2175 31.4217C30.6791 30.9601 31.1508 30.5087 31.6312 30.0688L31.8882 30.3011L37.192 35.1014C37.909 35.7517 38.9831 35.7342 39.5898 35.0636L39.7626 34.8735Z" fill="#722544"/>
<path d="M40.7975 33.7281L39.7626 34.8734L39.5898 35.0635C38.9831 35.7341 37.909 35.7516 37.192 35.1013L31.8881 30.301L31.6312 30.0688C31.1508 30.5086 30.679 30.96 30.2175 31.4216C30.1812 31.4579 30.1434 31.4927 30.1057 31.5232C29.753 31.8266 29.3233 31.9703 28.8995 31.9703C28.1999 31.9703 27.5119 31.5813 27.1896 30.8686L24.1531 24.1435C23.9789 23.7589 23.4302 23.7473 23.2488 24.1305C22.51 25.6952 20.4721 26.4254 18.8594 25.3498C18.5749 25.1596 18.2948 24.9622 17.9987 24.7924C15.4731 23.3408 13.7864 20.5931 13.8488 17.4563C13.8793 15.9263 14.3336 14.4951 15.0986 13.2729C16.5269 10.9882 19.0409 9.44082 21.9003 9.37114C24.1139 9.31744 26.1315 10.1347 27.6425 11.502C27.8341 11.6733 28.017 11.8562 28.1897 12.0463C28.3987 11.8156 28.6208 11.5993 28.856 11.3946C30.3713 10.0766 32.3715 9.30002 34.5546 9.3726C38.8786 9.5163 42.3941 13.0392 42.5277 17.3634C42.6046 19.8295 41.5987 22.062 39.9513 23.6224C39.5985 23.9563 39.2168 24.2582 38.8104 24.5268C37.7101 25.2511 36.6302 26.0073 35.5793 26.797L35.9872 27.1657L40.5972 31.3374C41.3142 31.9863 41.4042 33.0575 40.7975 33.7281Z" fill="#FEF1FA"/>
<path d="M38.3821 18.651C38.7537 19.0226 38.7537 19.625 38.3821 19.9951C38.1963 20.1809 37.9539 20.2738 37.7101 20.2738C37.4662 20.2738 37.2238 20.1809 37.038 19.9951L35.1903 18.1473L33.3425 19.9951C33.1567 20.1809 32.9129 20.2738 32.669 20.2738C32.4266 20.2738 32.1827 20.1809 31.997 19.9951C31.6254 19.625 31.6254 19.0226 31.997 18.651L33.8447 16.8032L31.997 14.9553C31.6254 14.5837 31.6254 13.9814 31.997 13.6098C32.3685 13.2396 32.9709 13.2396 33.3425 13.6098L35.1903 15.4576L37.038 13.6098C37.4096 13.2396 38.0105 13.2396 38.3821 13.6098C38.7537 13.9814 38.7537 14.5837 38.3821 14.9553L36.5344 16.8032L38.3821 18.651Z" fill="#E94088"/>
<path d="M46.0737 46.573C43.8268 48.6966 40.7946 50 37.459 50H12.541C5.61587 50 0 44.3855 0 37.4587V12.5414C0 8.42484 1.98421 4.77129 5.04688 2.48511V35.428C5.04688 41.584 10.0372 46.573 16.1915 46.573H46.0737Z" fill="#722544"/>
</g>
<defs>
<clipPath id="clip0_38_314">
<rect width="50" height="50" fill="white"/>
</clipPath>
</defs>
</svg>
