<svg width="100" height="100" viewBox="0 0 100 100" fill="none" xmlns="http://www.w3.org/2000/svg">
<g clip-path="url(#clip0_49_530)">
<path d="M22.7929 6.60156C23.6718 5.41016 25.0781 4.6875 26.5625 4.6875H73.4374C74.9218 4.6875 76.3281 5.39062 77.207 6.60156L99.082 36.2891C100.41 38.0859 100.273 40.5664 98.789 42.2266L53.4765 92.2266C52.5976 93.2031 51.3281 93.7695 50 93.7695C48.6718 93.7695 47.4218 93.2031 46.5234 92.2266L1.21089 42.2266C-0.293018 40.5664 -0.410205 38.0859 0.91792 36.2891L22.7929 6.60156ZM30.3125 14.375C29.6679 14.8633 29.4921 15.7422 29.9023 16.4258L41.1132 35.0977L12.3632 37.5C11.5625 37.5586 10.9375 38.2422 10.9375 39.0625C10.9375 39.8828 11.5625 40.5469 12.3632 40.625L49.8632 43.75C49.9414 43.75 50.039 43.75 50.1171 43.75L87.6171 40.625C88.4179 40.5664 89.0429 39.8828 89.0429 39.0625C89.0429 38.2422 88.4179 37.5781 87.6171 37.5L58.8867 35.1172L70.0976 16.4453C70.5078 15.7617 70.332 14.8633 69.6874 14.3945C69.0429 13.9258 68.1445 14.0039 67.5976 14.5898L50 33.6328L32.4023 14.5703C31.8554 13.9844 30.957 13.9062 30.3125 14.375Z" fill="#DF1692"/>
</g>
<defs>
<clipPath id="clip0_49_530">
<rect width="100" height="100" fill="white"/>
</clipPath>
</defs>
</svg>
