<svg width="100" height="100" viewBox="0 0 100 100" fill="none" xmlns="http://www.w3.org/2000/svg">
<g clip-path="url(#clip0_49_528)">
<g clip-path="url(#clip1_49_528)">
<path d="M77.991 8.71075C79.308 6.03497 78.3258 2.90997 75.6249 1.19122C72.924 -0.52753 69.241 -0.37128 66.7187 1.54278L9.57583 45.2928C7.34369 47.0115 6.54012 49.7654 7.58923 52.1873C8.63833 54.6092 11.3169 56.2498 14.2857 56.2498H39.174L22.0089 91.2889C20.6919 93.9647 21.674 97.0897 24.3749 98.8084C27.0758 100.527 30.7589 100.371 33.2812 98.4568L90.424 54.7068C92.6562 52.9881 93.4598 50.2342 92.4107 47.8123C91.3615 45.3904 88.7053 43.7693 85.7142 43.7693H60.8258L77.991 8.71075Z" fill="#FFD600"/>
</g>
</g>
<defs>
<clipPath id="clip0_49_528">
<rect width="100" height="100" fill="white"/>
</clipPath>
<clipPath id="clip1_49_528">
<rect width="100" height="100" fill="white"/>
</clipPath>
</defs>
</svg>
